<svg xmlns="http://www.w3.org/2000/svg" xmlns:xlink="http://www.w3.org/1999/xlink" width="576" zoomAndPan="magnify" viewBox="0 0 432 287.999989" height="384" preserveAspectRatio="xMidYMid meet" version="1.0"><defs><clipPath id="0d38e62a61"><path d="M 175 137.09375 L 384 137.09375 L 384 150.59375 L 175 150.59375 Z M 175 137.09375 " clip-rule="nonzero"/></clipPath><clipPath id="608e36c4e6"><path d="M 49 136.386719 L 278 136.386719 L 278 151.386719 L 49 151.386719 Z M 49 136.386719 " clip-rule="nonzero"/></clipPath></defs><g clip-path="url(#0d38e62a61)"><path fill="#d9d9d9" d="M 376.15625 137.09375 L 182.890625 137.09375 C 179.078125 137.09375 175.988281 140.183594 175.988281 143.996094 C 175.988281 147.804688 179.078125 150.898438 182.890625 150.898438 L 376.15625 150.898438 C 379.964844 150.898438 383.058594 147.804688 383.058594 143.996094 C 383.058594 140.183594 379.964844 137.09375 376.15625 137.09375 Z M 376.15625 137.09375 " fill-opacity="1" fill-rule="nonzero"/></g><g clip-path="url(#608e36c4e6)"><path fill="#000000" d="M 269.707031 136.386719 L 56.664062 136.386719 C 52.464844 136.386719 49.058594 139.746094 49.058594 143.886719 C 49.058594 148.03125 52.464844 151.386719 56.664062 151.386719 L 269.707031 151.386719 C 273.910156 151.386719 277.316406 148.03125 277.316406 143.886719 C 277.316406 139.746094 273.910156 136.386719 269.707031 136.386719 Z M 269.707031 136.386719 " fill-opacity="1" fill-rule="nonzero"/></g></svg>