<svg xmlns="http://www.w3.org/2000/svg" xmlns:xlink="http://www.w3.org/1999/xlink" width="600" zoomAndPan="magnify" viewBox="0 0 450 225" height="300" preserveAspectRatio="xMidYMid meet" version="1.0"><defs><g/><clipPath id="d3f78d0505"><path d="M 49.382812 112.5 L 400.617188 112.5 L 400.617188 121.234375 L 49.382812 121.234375 Z M 49.382812 112.5 " clip-rule="nonzero"/></clipPath></defs><g fill="#231f20" fill-opacity="1"><g transform="translate(58.46994, 138.867714)"><g><path d="M 19.355469 -71.621094 C 11.863281 -72.070312 4.996094 -71.085938 3.121094 -70.195312 C 3.480469 -69.304688 3.566406 -68.5 3.566406 -67.789062 C 3.835938 -63.148438 4.191406 -50.484375 4.191406 -32.824219 C 4.191406 -10.882812 3.566406 -5.796875 3.566406 -4.996094 C 3.566406 -3.210938 3.480469 -0.980469 3.121094 0 L 12.664062 0 C 12.398438 -0.980469 11.953125 -3.03125 11.863281 -5.085938 C 11.683594 -10.4375 11.59375 -23.457031 11.863281 -25.332031 C 13.46875 -24.886719 17.214844 -24.171875 20.871094 -24.171875 C 25.867188 -24.171875 38.351562 -28.183594 38.351562 -48.34375 C 38.351562 -68.589844 25.507812 -71.355469 19.355469 -71.621094 Z M 19.980469 -32.289062 C 17.035156 -32.289062 13.734375 -32.644531 11.863281 -33.625 C 11.773438 -34.695312 11.683594 -39.15625 11.683594 -47.273438 C 11.683594 -55.835938 11.773438 -61.542969 11.863281 -63.417969 C 13.46875 -64.21875 15.699219 -64.488281 19 -64.308594 C 21.050781 -64.128906 29.789062 -62.257812 29.789062 -48.253906 C 29.789062 -34.25 23.546875 -32.289062 19.980469 -32.289062 Z M 19.980469 -32.289062 "/></g></g></g><g fill="#231f20" fill-opacity="1"><g transform="translate(111.538585, 138.867714)"><g><path d="M 34.875 0 C 34.519531 -0.355469 34.339844 -0.980469 34.339844 -1.339844 C 29.523438 -22.65625 25.242188 -47.09375 22.386719 -68.859375 C 22.296875 -69.660156 22.03125 -70.820312 22.476562 -71.355469 L 22.296875 -71.355469 C 19.800781 -71.355469 15.074219 -71.355469 14.09375 -71.355469 L 13.914062 -71.355469 C 14.359375 -70.820312 14.09375 -69.660156 14.003906 -68.859375 C 11.148438 -47.09375 6.867188 -22.65625 2.050781 -1.339844 C 1.960938 -0.980469 1.875 -0.355469 1.515625 0 L 9.988281 0 C 9.722656 -0.625 9.902344 -1.695312 9.988281 -2.230469 C 10.972656 -8.382812 12.308594 -17.125 14.003906 -27.203125 C 16.5 -27.027344 19.355469 -26.9375 22.386719 -27.203125 C 24.082031 -17.125 25.421875 -8.382812 26.3125 -2.230469 C 26.402344 -1.695312 26.578125 -0.625 26.402344 0 Z M 15.253906 -34.605469 C 16.144531 -39.78125 17.125 -45.132812 18.195312 -50.75 C 19.265625 -45.222656 20.15625 -39.78125 21.050781 -34.695312 C 19.175781 -34.429688 17.214844 -34.429688 15.253906 -34.605469 Z M 15.253906 -34.605469 "/></g></g></g><g fill="#231f20" fill-opacity="1"><g transform="translate(161.128904, 138.867714)"><g><path d="M 1.515625 -71.355469 C 5.621094 -43.703125 8.652344 -16.679688 9.8125 -2.230469 C 9.902344 -1.695312 9.988281 -0.625 9.8125 0 C 10.523438 0 17.394531 0 17.839844 0 C 17.660156 -0.625 17.75 -1.695312 17.75 -2.230469 C 18.015625 -6.957031 19.265625 -30.148438 19.890625 -34.160156 C 20.605469 -30.148438 21.851562 -7.136719 22.121094 -2.230469 C 22.121094 -1.695312 22.03125 -0.625 21.851562 0 C 22.386719 0 29.433594 0 30.058594 0 C 29.878906 -0.625 29.96875 -1.695312 30.058594 -2.230469 C 31.21875 -16.679688 34.160156 -43.703125 38.351562 -71.355469 L 29.789062 -71.355469 C 30.148438 -70.820312 30.058594 -69.660156 30.058594 -68.859375 C 29.167969 -55.476562 28.273438 -47.273438 26.757812 -33.535156 C 24.972656 -39.421875 22.210938 -50.304688 21.140625 -56.816406 L 18.195312 -56.816406 C 17.214844 -51.285156 15.964844 -44.417969 13.113281 -33.449219 C 11.59375 -47.273438 10.613281 -55.390625 9.8125 -68.859375 C 9.722656 -69.660156 9.722656 -70.820312 10.078125 -71.355469 Z M 1.515625 -71.355469 "/></g></g></g><g fill="#231f20" fill-opacity="1"><g transform="translate(214.197549, 138.867714)"><g><path d="M 12.21875 0 C 11.953125 -5.351562 11.863281 -22.832031 12.21875 -30.773438 L 18.105469 -30.773438 C 20.070312 -30.773438 22.121094 -30.324219 23.191406 -30.058594 C 23.191406 -31.128906 23.191406 -33.179688 23.191406 -34.964844 L 23.191406 -39.871094 C 22.121094 -39.511719 20.070312 -39.066406 18.105469 -39.066406 L 12.21875 -39.066406 C 12.21875 -41.117188 12.042969 -41.652344 12.042969 -50.394531 C 12.042969 -56.636719 12.128906 -61.277344 12.21875 -63.058594 L 28.71875 -63.058594 C 30.773438 -63.058594 32.824219 -62.613281 33.894531 -62.257812 C 33.894531 -63.328125 33.894531 -65.378906 33.894531 -67.164062 L 33.894531 -72.070312 C 32.824219 -71.800781 30.773438 -71.355469 28.71875 -71.355469 L 12.933594 -71.355469 C 11.863281 -71.355469 9.8125 -71.355469 8.027344 -71.355469 L 3.121094 -71.355469 C 3.480469 -70.375 3.925781 -68.324219 3.925781 -66.269531 C 3.925781 -66.003906 4.015625 -58.777344 4.015625 -40.226562 C 4.015625 -14.359375 3.925781 -5.707031 3.925781 -4.996094 C 3.925781 -3.210938 3.746094 -0.980469 3.390625 0 Z M 12.21875 0 "/></g></g></g><g fill="#231f20" fill-opacity="1"><g transform="translate(262.806808, 138.867714)"><g><path d="M 26.042969 -8.382812 L 12.21875 -8.382812 C 11.953125 -13.648438 11.863281 -23.367188 12.21875 -31.308594 L 18.105469 -31.308594 C 20.070312 -31.308594 22.121094 -30.859375 23.191406 -30.59375 C 23.191406 -31.664062 23.191406 -33.714844 23.191406 -35.5 L 23.191406 -40.40625 C 22.121094 -40.046875 20.070312 -39.601562 18.105469 -39.601562 L 12.21875 -39.601562 C 12.21875 -41.652344 12.042969 -41.742188 12.042969 -50.484375 C 12.042969 -56.636719 12.128906 -61.277344 12.21875 -63.058594 L 25.957031 -63.058594 C 28.007812 -63.058594 30.058594 -62.613281 31.039062 -62.257812 C 31.039062 -63.328125 31.039062 -65.378906 31.039062 -67.164062 L 31.039062 -72.070312 C 30.058594 -71.800781 28.007812 -71.355469 25.957031 -71.355469 L 12.933594 -71.355469 C 11.863281 -71.355469 9.8125 -71.355469 8.027344 -71.355469 L 3.121094 -71.355469 C 3.480469 -70.375 3.925781 -68.324219 3.925781 -66.269531 C 3.925781 -63.238281 4.015625 -54.320312 4.015625 -40.761719 C 4.015625 -14.894531 3.925781 -5.796875 3.925781 -4.996094 C 3.925781 -3.300781 3.746094 -0.980469 3.390625 0 L 3.65625 0 C 3.925781 0 4.371094 0 4.996094 0 L 26.042969 0 C 28.097656 0 30.148438 0.445312 31.21875 0.714844 C 31.21875 -0.355469 31.21875 -2.410156 31.21875 -4.191406 L 31.21875 -9.097656 C 30.148438 -8.832031 28.097656 -8.382812 26.042969 -8.382812 Z M 26.042969 -8.382812 "/></g></g></g><g fill="#231f20" fill-opacity="1"><g transform="translate(308.740439, 138.867714)"><g><path d="M 25.332031 -17.125 C 24.261719 -10.792969 22.121094 -7.3125 17.570312 -7.3125 C 9.542969 -7.3125 8.832031 -18.015625 8.832031 -36.035156 C 8.832031 -54.050781 9.542969 -64.042969 17.570312 -64.042969 C 22.210938 -64.042969 24.351562 -60.652344 25.332031 -54.230469 L 32.554688 -54.230469 C 30.683594 -66.804688 26.222656 -71.355469 17.570312 -71.355469 C 5.53125 -71.355469 1.515625 -62.703125 1.515625 -36.035156 C 1.515625 -9.277344 5.53125 0 17.570312 0 C 26.132812 0 30.59375 -4.726562 32.464844 -17.125 Z M 25.332031 -17.125 "/></g></g></g><g fill="#231f20" fill-opacity="1"><g transform="translate(356.011878, 138.867714)"><g><path d="M 28.808594 -71.355469 C 27.648438 -71.355469 25.152344 -71.355469 22.566406 -71.355469 L 6.511719 -71.355469 C 4.726562 -71.355469 2.496094 -71.445312 1.515625 -71.800781 C 1.515625 -70.910156 1.515625 -69.035156 1.515625 -67.164062 L 1.515625 -62.613281 C 2.496094 -62.972656 4.726562 -62.972656 6.511719 -63.058594 C 7.226562 -63.058594 9.8125 -63.238281 13.734375 -63.058594 C 13.824219 -59.3125 14.003906 -51.644531 14.003906 -36.925781 C 14.003906 -9.632812 13.558594 -5.707031 13.558594 -4.996094 C 13.558594 -3.300781 13.46875 -0.890625 13.113281 0.0898438 C 14.003906 0.0898438 15.875 0.0898438 17.75 0.0898438 L 22.296875 0.0898438 C 21.941406 -0.890625 21.851562 -3.300781 21.851562 -4.996094 C 21.851562 -5.351562 21.496094 -21.496094 21.496094 -36.925781 C 21.496094 -51.375 21.675781 -59.226562 21.761719 -63.058594 C 25.597656 -63.238281 27.027344 -63.148438 28.808594 -63.058594 C 30.859375 -62.972656 32.914062 -62.792969 33.894531 -62.613281 C 33.894531 -63.507812 33.894531 -65.378906 33.894531 -67.164062 L 33.894531 -71.710938 C 32.914062 -71.535156 30.859375 -71.355469 28.808594 -71.355469 Z M 28.808594 -71.355469 "/></g></g></g><g clip-path="url(#d3f78d0505)"><path fill="#afa8a1" d="M 49.382812 112.5 L 400.617188 112.5 L 400.617188 121.234375 L 49.382812 121.234375 Z M 49.382812 112.5 " fill-opacity="1" fill-rule="nonzero"/></g></svg>